<svg width="342" height="100" viewBox="0 0 342 100" fill="none" xmlns="http://www.w3.org/2000/svg">
<rect width="342" height="100" fill="white"/>
<rect x="14" y="14" width="249" height="73" rx="8" fill="#29C855"/>
<path d="M55.752 73.768C51.1867 73.768 47.048 72.7867 43.336 70.824C39.6667 68.8187 36.7653 66.0667 34.632 62.568C32.5413 59.0267 31.496 55.0373 31.496 50.6C31.496 46.1627 32.5413 42.1947 34.632 38.696C36.7653 35.1547 39.6667 32.4027 43.336 30.44C47.048 28.4347 51.208 27.432 55.816 27.432C59.6987 27.432 63.1973 28.1147 66.312 29.48C69.4693 30.8453 72.1147 32.808 74.248 35.368L67.592 41.512C64.5627 38.0133 60.808 36.264 56.328 36.264C53.5547 36.264 51.08 36.8827 48.904 38.12C46.728 39.3147 45.0213 41 43.784 43.176C42.5893 45.352 41.992 47.8267 41.992 50.6C41.992 53.3733 42.5893 55.848 43.784 58.024C45.0213 60.2 46.728 61.9067 48.904 63.144C51.08 64.3387 53.5547 64.936 56.328 64.936C60.808 64.936 64.5627 63.1653 67.592 59.624L74.248 65.768C72.1147 68.3707 69.4693 70.3547 66.312 71.72C63.1547 73.0853 59.6347 73.768 55.752 73.768ZM102.008 73.768C97.3573 73.768 93.1547 72.7653 89.4 70.76C85.688 68.7547 82.7653 66.0027 80.632 62.504C78.5413 58.9627 77.496 54.9947 77.496 50.6C77.496 46.2053 78.5413 42.2587 80.632 38.76C82.7653 35.2187 85.688 32.4453 89.4 30.44C93.1547 28.4347 97.3573 27.432 102.008 27.432C106.659 27.432 110.84 28.4347 114.552 30.44C118.264 32.4453 121.187 35.2187 123.32 38.76C125.453 42.2587 126.52 46.2053 126.52 50.6C126.52 54.9947 125.453 58.9627 123.32 62.504C121.187 66.0027 118.264 68.7547 114.552 70.76C110.84 72.7653 106.659 73.768 102.008 73.768ZM102.008 64.936C104.653 64.936 107.043 64.3387 109.176 63.144C111.309 61.9067 112.973 60.2 114.168 58.024C115.405 55.848 116.024 53.3733 116.024 50.6C116.024 47.8267 115.405 45.352 114.168 43.176C112.973 41 111.309 39.3147 109.176 38.12C107.043 36.8827 104.653 36.264 102.008 36.264C99.3627 36.264 96.9733 36.8827 94.84 38.12C92.7067 39.3147 91.0213 41 89.784 43.176C88.5893 45.352 87.992 47.8267 87.992 50.6C87.992 53.3733 88.5893 55.848 89.784 58.024C91.0213 60.2 92.7067 61.9067 94.84 63.144C96.9733 64.3387 99.3627 64.936 102.008 64.936ZM175.884 28.2L156.492 73H146.252L126.924 28.2H138.124L151.756 60.2L165.58 28.2H175.884ZM179.625 28.2H189.993V73H179.625V28.2ZM200.625 28.2H220.977C225.841 28.2 230.129 29.1387 233.841 31.016C237.595 32.8507 240.497 35.4533 242.545 38.824C244.635 42.1947 245.681 46.12 245.681 50.6C245.681 55.08 244.635 59.0053 242.545 62.376C240.497 65.7467 237.595 68.3707 233.841 70.248C230.129 72.0827 225.841 73 220.977 73H200.625V28.2ZM220.465 64.488C224.945 64.488 228.507 63.2507 231.153 60.776C233.841 58.2587 235.185 54.8667 235.185 50.6C235.185 46.3333 233.841 42.9627 231.153 40.488C228.507 37.9707 224.945 36.712 220.465 36.712H210.993V64.488H220.465Z" fill="white"/>
<path d="M313.329 21.7C316.696 21.7 319.363 22.7 321.329 24.7C323.329 26.6667 324.329 29.6333 324.329 33.6V49H316.529V34.8C316.529 32.6667 316.079 31.0833 315.179 30.05C314.313 28.9833 313.063 28.45 311.429 28.45C309.596 28.45 308.146 29.05 307.079 30.25C306.013 31.4167 305.479 33.1667 305.479 35.5V49H297.679V34.8C297.679 30.5667 295.979 28.45 292.579 28.45C290.779 28.45 289.346 29.05 288.279 30.25C287.213 31.4167 286.679 33.1667 286.679 35.5V49H278.879V22.1H286.329V25.2C287.329 24.0667 288.546 23.2 289.979 22.6C291.446 22 293.046 21.7 294.779 21.7C296.679 21.7 298.396 22.0833 299.929 22.85C301.463 23.5833 302.696 24.6667 303.629 26.1C304.729 24.7 306.113 23.6167 307.779 22.85C309.479 22.0833 311.329 21.7 313.329 21.7ZM307.332 87L301.432 78.75L295.332 87H286.832L297.182 73.45L287.182 60.1H295.932L301.632 67.95L307.482 60.1H315.782L305.782 73.25L316.182 87H307.332Z" fill="#190D62"/>
</svg>
